<svg xmlns="http://www.w3.org/2000/svg" xmlns:xlink="http://www.w3.org/1999/xlink" width="500" zoomAndPan="magnify" viewBox="0 0 375 374.999991" height="500" preserveAspectRatio="xMidYMid meet" version="1.0"><defs><clipPath id="a282f76324"><path d="M 68.332031 98 L 306.832031 98 L 306.832031 278.136719 L 68.332031 278.136719 Z M 68.332031 98 " clip-rule="nonzero"/></clipPath></defs><g clip-path="url(#a282f76324)"><path fill="#f6f0e0" d="M 86.054688 278.328125 C 85.476562 278.328125 84.898438 278.296875 84.324219 278.242188 C 83.746094 278.183594 83.175781 278.097656 82.605469 277.984375 C 82.039062 277.871094 81.476562 277.730469 80.921875 277.5625 C 80.367188 277.394531 79.824219 277.199219 79.289062 276.980469 C 78.753906 276.757812 78.230469 276.511719 77.722656 276.238281 C 77.210938 275.964844 76.714844 275.667969 76.234375 275.347656 C 75.75 275.027344 75.285156 274.679688 74.839844 274.316406 C 74.390625 273.949219 73.960938 273.558594 73.554688 273.152344 C 73.144531 272.742188 72.753906 272.316406 72.386719 271.867188 C 72.019531 271.421875 71.675781 270.957031 71.355469 270.476562 C 71.03125 269.996094 70.734375 269.503906 70.460938 268.992188 C 70.1875 268.484375 69.941406 267.960938 69.71875 267.425781 C 69.496094 266.894531 69.300781 266.351562 69.132812 265.796875 C 68.964844 265.242188 68.824219 264.683594 68.710938 264.117188 C 68.597656 263.550781 68.511719 262.980469 68.453125 262.402344 C 68.394531 261.828125 68.367188 261.253906 68.367188 260.675781 L 68.367188 253.359375 C 68.367188 252.082031 68.503906 250.820312 68.777344 249.574219 C 69.050781 248.324219 69.460938 247.121094 69.996094 245.964844 C 70.535156 244.804688 71.191406 243.714844 71.964844 242.699219 C 72.742188 241.683594 73.617188 240.761719 74.59375 239.9375 L 74.59375 203.167969 C 73.617188 202.339844 72.742188 201.421875 71.964844 200.402344 C 71.191406 199.386719 70.535156 198.300781 69.996094 197.140625 C 69.460938 195.984375 69.050781 194.78125 68.777344 193.53125 C 68.503906 192.285156 68.367188 191.023438 68.367188 189.746094 L 68.367188 182.429688 C 68.367188 181.851562 68.394531 181.277344 68.453125 180.699219 C 68.511719 180.125 68.597656 179.554688 68.710938 178.988281 C 68.824219 178.421875 68.964844 177.859375 69.132812 177.308594 C 69.300781 176.753906 69.496094 176.210938 69.71875 175.675781 C 69.941406 175.144531 70.1875 174.621094 70.460938 174.113281 C 70.734375 173.601562 71.03125 173.105469 71.355469 172.625 C 71.675781 172.144531 72.019531 171.683594 72.386719 171.234375 C 72.753906 170.789062 73.144531 170.363281 73.554688 169.953125 C 73.960938 169.542969 74.390625 169.15625 74.839844 168.789062 C 75.285156 168.421875 75.75 168.078125 76.234375 167.757812 C 76.714844 167.4375 77.210938 167.140625 77.722656 166.867188 C 78.230469 166.59375 78.753906 166.347656 79.289062 166.125 C 79.824219 165.90625 80.367188 165.710938 80.921875 165.542969 C 81.476562 165.375 82.039062 165.234375 82.605469 165.121094 C 83.175781 165.007812 83.746094 164.921875 84.324219 164.863281 C 84.898438 164.808594 85.476562 164.777344 86.054688 164.777344 L 116.210938 164.777344 C 115.980469 163.8125 115.820312 162.835938 115.726562 161.847656 C 115.632812 160.863281 115.605469 159.875 115.652344 158.882812 C 115.695312 157.890625 115.808594 156.910156 115.988281 155.933594 C 116.171875 154.960938 116.417969 154.003906 116.734375 153.0625 C 117.046875 152.121094 117.425781 151.207031 117.867188 150.320312 C 118.3125 149.429688 118.8125 148.578125 119.375 147.757812 C 119.933594 146.941406 120.550781 146.164062 121.21875 145.433594 C 121.886719 144.699219 122.605469 144.015625 123.371094 143.382812 L 169.433594 105.378906 C 170.0625 104.859375 170.71875 104.363281 171.394531 103.898438 C 172.070312 103.433594 172.761719 103 173.476562 102.59375 C 174.1875 102.1875 174.917969 101.8125 175.664062 101.472656 C 176.410156 101.128906 177.167969 100.820312 177.941406 100.542969 C 178.710938 100.265625 179.496094 100.023438 180.289062 99.8125 C 181.082031 99.601562 181.882812 99.425781 182.691406 99.285156 C 183.5 99.144531 184.3125 99.039062 185.128906 98.96875 C 185.945312 98.898438 186.765625 98.863281 187.585938 98.863281 C 188.40625 98.863281 189.226562 98.898438 190.042969 98.96875 C 190.863281 99.039062 191.675781 99.144531 192.484375 99.285156 C 193.292969 99.425781 194.09375 99.601562 194.886719 99.8125 C 195.679688 100.023438 196.460938 100.265625 197.234375 100.542969 C 198.003906 100.820312 198.765625 101.128906 199.507812 101.472656 C 200.253906 101.8125 200.984375 102.1875 201.695312 102.59375 C 202.410156 103 203.105469 103.433594 203.78125 103.898438 C 204.457031 104.363281 205.109375 104.859375 205.742188 105.378906 L 251.789062 143.378906 C 252.871094 144.269531 253.855469 145.253906 254.742188 146.339844 C 255.628906 147.421875 256.402344 148.582031 257.058594 149.816406 C 257.714844 151.054688 258.242188 152.34375 258.644531 153.683594 C 259.042969 155.023438 259.308594 156.390625 259.4375 157.78125 C 259.664062 160.140625 259.503906 162.472656 258.957031 164.777344 L 289.109375 164.777344 C 289.691406 164.777344 290.269531 164.808594 290.84375 164.863281 C 291.421875 164.921875 291.992188 165.007812 292.5625 165.121094 C 293.128906 165.234375 293.691406 165.375 294.242188 165.542969 C 294.796875 165.710938 295.34375 165.90625 295.878906 166.125 C 296.414062 166.347656 296.933594 166.59375 297.445312 166.867188 C 297.957031 167.140625 298.453125 167.4375 298.933594 167.757812 C 299.414062 168.078125 299.878906 168.421875 300.328125 168.789062 C 300.773438 169.15625 301.203125 169.542969 301.613281 169.953125 C 302.023438 170.363281 302.410156 170.789062 302.777344 171.234375 C 303.148438 171.683594 303.492188 172.144531 303.8125 172.625 C 304.136719 173.105469 304.433594 173.601562 304.707031 174.113281 C 304.980469 174.621094 305.226562 175.144531 305.449219 175.675781 C 305.671875 176.210938 305.867188 176.753906 306.035156 177.308594 C 306.203125 177.859375 306.34375 178.421875 306.457031 178.988281 C 306.570312 179.554688 306.65625 180.125 306.714844 180.699219 C 306.769531 181.277344 306.800781 181.851562 306.800781 182.429688 L 306.800781 189.746094 C 306.800781 191.023438 306.664062 192.285156 306.390625 193.53125 C 306.113281 194.78125 305.707031 195.984375 305.171875 197.140625 C 304.632812 198.300781 303.976562 199.386719 303.199219 200.402344 C 302.425781 201.421875 301.550781 202.339844 300.574219 203.167969 L 300.574219 239.9375 C 301.550781 240.761719 302.425781 241.683594 303.199219 242.699219 C 303.976562 243.714844 304.632812 244.804688 305.171875 245.964844 C 305.707031 247.121094 306.113281 248.324219 306.390625 249.574219 C 306.664062 250.820312 306.800781 252.082031 306.800781 253.359375 L 306.800781 260.675781 C 306.800781 261.253906 306.769531 261.828125 306.714844 262.402344 C 306.65625 262.980469 306.570312 263.550781 306.457031 264.117188 C 306.34375 264.683594 306.203125 265.242188 306.035156 265.796875 C 305.867188 266.351562 305.671875 266.894531 305.449219 267.425781 C 305.226562 267.960938 304.980469 268.484375 304.707031 268.992188 C 304.433594 269.503906 304.136719 269.996094 303.8125 270.476562 C 303.492188 270.957031 303.148438 271.421875 302.777344 271.867188 C 302.410156 272.316406 302.023438 272.742188 301.613281 273.152344 C 301.203125 273.558594 300.777344 273.949219 300.328125 274.316406 C 299.878906 274.679688 299.414062 275.027344 298.933594 275.347656 C 298.453125 275.667969 297.957031 275.964844 297.445312 276.238281 C 296.933594 276.511719 296.414062 276.757812 295.878906 276.980469 C 295.34375 277.199219 294.796875 277.394531 294.242188 277.5625 C 293.691406 277.730469 293.128906 277.871094 292.5625 277.984375 C 291.992188 278.097656 291.421875 278.183594 290.84375 278.242188 C 290.269531 278.296875 289.691406 278.328125 289.109375 278.328125 Z M 86.054688 278.328125 " fill-opacity="1" fill-rule="nonzero"/></g><path fill="#0083cb" d="M 88.828125 179.984375 L 286.335938 179.984375 L 286.335938 249.917969 L 88.828125 249.917969 Z M 88.828125 179.984375 " fill-opacity="1" fill-rule="nonzero"/><path fill="#f47d67" d="M 86.050781 178.988281 L 289.113281 178.988281 C 289.570312 178.988281 290.011719 179.074219 290.433594 179.25 C 290.855469 179.425781 291.230469 179.675781 291.550781 179.996094 C 291.875 180.320312 292.125 180.691406 292.300781 181.113281 C 292.476562 181.535156 292.5625 181.976562 292.5625 182.433594 L 292.5625 189.75 C 292.5625 190.207031 292.476562 190.644531 292.300781 191.066406 C 292.125 191.488281 291.875 191.863281 291.550781 192.183594 C 291.230469 192.507812 290.855469 192.757812 290.433594 192.929688 C 290.011719 193.105469 289.570312 193.195312 289.113281 193.195312 L 86.050781 193.195312 C 85.59375 193.195312 85.152344 193.105469 84.730469 192.929688 C 84.308594 192.757812 83.933594 192.507812 83.609375 192.183594 C 83.285156 191.863281 83.039062 191.488281 82.863281 191.066406 C 82.6875 190.644531 82.597656 190.207031 82.597656 189.75 L 82.597656 182.433594 C 82.597656 181.976562 82.6875 181.535156 82.863281 181.113281 C 83.039062 180.691406 83.285156 180.320312 83.609375 179.996094 C 83.933594 179.675781 84.308594 179.425781 84.730469 179.25 C 85.152344 179.074219 85.59375 178.988281 86.050781 178.988281 Z M 86.050781 178.988281 " fill-opacity="1" fill-rule="nonzero"/><path fill="#df8352" d="M 86.050781 249.914062 L 289.113281 249.914062 C 289.570312 249.914062 290.011719 250 290.433594 250.175781 C 290.855469 250.351562 291.230469 250.601562 291.550781 250.921875 C 291.875 251.246094 292.125 251.617188 292.300781 252.039062 C 292.476562 252.460938 292.5625 252.902344 292.5625 253.359375 L 292.5625 260.675781 C 292.5625 261.132812 292.476562 261.570312 292.300781 261.992188 C 292.125 262.414062 291.875 262.789062 291.550781 263.109375 C 291.230469 263.433594 290.855469 263.683594 290.433594 263.859375 C 290.011719 264.03125 289.570312 264.121094 289.113281 264.121094 L 86.050781 264.121094 C 85.59375 264.121094 85.152344 264.03125 84.730469 263.859375 C 84.308594 263.683594 83.933594 263.433594 83.609375 263.109375 C 83.285156 262.789062 83.039062 262.414062 82.863281 261.992188 C 82.6875 261.570312 82.597656 261.132812 82.597656 260.675781 L 82.597656 253.359375 C 82.597656 252.902344 82.6875 252.460938 82.863281 252.039062 C 83.039062 251.617188 83.285156 251.246094 83.609375 250.921875 C 83.933594 250.601562 84.308594 250.351562 84.730469 250.175781 C 85.152344 250 85.59375 249.914062 86.050781 249.914062 Z M 86.050781 249.914062 " fill-opacity="1" fill-rule="nonzero"/><path fill="#b4e0e9" d="M 245.125 207.402344 L 272.101562 207.402344 L 272.101562 235.707031 L 245.125 235.707031 Z M 245.125 207.402344 " fill-opacity="1" fill-rule="nonzero"/><path fill="#009bd1" d="M 144.285156 156.007812 L 187.582031 122.265625 L 230.882812 156.007812 L 230.882812 264.125 L 144.285156 264.125 Z M 144.285156 156.007812 " fill-opacity="1" fill-rule="nonzero"/><path fill="#f47d67" d="M 233.648438 165.28125 L 187.582031 127.269531 L 141.519531 165.28125 C 141.160156 165.578125 140.773438 165.835938 140.363281 166.058594 C 139.953125 166.28125 139.523438 166.460938 139.074219 166.597656 C 138.628906 166.734375 138.171875 166.824219 137.707031 166.871094 C 137.242188 166.921875 136.777344 166.921875 136.3125 166.878906 C 135.847656 166.832031 135.390625 166.746094 134.941406 166.609375 C 134.496094 166.476562 134.066406 166.300781 133.652344 166.082031 C 133.238281 165.863281 132.851562 165.609375 132.488281 165.3125 C 132.125 165.019531 131.796875 164.691406 131.5 164.332031 C 131.199219 163.972656 130.941406 163.585938 130.71875 163.175781 C 130.496094 162.765625 130.316406 162.339844 130.179688 161.894531 C 130.042969 161.445312 129.949219 160.992188 129.902344 160.527344 C 129.855469 160.0625 129.855469 159.601562 129.898438 159.136719 C 129.941406 158.671875 130.03125 158.214844 130.164062 157.769531 C 130.300781 157.320312 130.476562 156.890625 130.695312 156.480469 C 130.914062 156.066406 131.171875 155.679688 131.464844 155.320312 C 131.761719 154.957031 132.089844 154.628906 132.449219 154.332031 L 178.496094 116.332031 C 179.132812 115.808594 179.804688 115.34375 180.519531 114.9375 C 181.234375 114.527344 181.980469 114.1875 182.753906 113.910156 C 183.53125 113.628906 184.320312 113.421875 185.132812 113.28125 C 185.945312 113.136719 186.761719 113.066406 187.582031 113.066406 C 188.40625 113.066406 189.222656 113.136719 190.035156 113.28125 C 190.84375 113.421875 191.636719 113.628906 192.410156 113.910156 C 193.1875 114.1875 193.929688 114.527344 194.644531 114.9375 C 195.359375 115.34375 196.035156 115.808594 196.667969 116.332031 L 242.71875 154.332031 C 243.078125 154.628906 243.40625 154.957031 243.703125 155.320312 C 243.996094 155.679688 244.253906 156.066406 244.472656 156.480469 C 244.691406 156.890625 244.867188 157.320312 245 157.769531 C 245.136719 158.214844 245.222656 158.671875 245.269531 159.136719 C 245.3125 159.601562 245.3125 160.0625 245.261719 160.527344 C 245.214844 160.992188 245.125 161.445312 244.988281 161.890625 C 244.847656 162.339844 244.667969 162.765625 244.449219 163.175781 C 244.226562 163.585938 243.964844 163.972656 243.667969 164.332031 C 243.371094 164.691406 243.039062 165.019531 242.679688 165.3125 C 242.316406 165.609375 241.929688 165.863281 241.515625 166.082031 C 241.101562 166.300781 240.671875 166.476562 240.222656 166.609375 C 239.777344 166.746094 239.320312 166.832031 238.855469 166.878906 C 238.390625 166.921875 237.925781 166.921875 237.460938 166.871094 C 236.992188 166.824219 236.539062 166.734375 236.089844 166.597656 C 235.644531 166.460938 235.214844 166.28125 234.804688 166.058594 C 234.394531 165.835938 234.007812 165.578125 233.648438 165.28125 Z M 233.648438 165.28125 " fill-opacity="1" fill-rule="nonzero"/><path fill="#df8352" d="M 201.816406 264.125 L 173.347656 264.125 L 173.347656 233.628906 C 173.347656 233.226562 173.425781 232.839844 173.578125 232.46875 C 173.734375 232.097656 173.953125 231.769531 174.238281 231.484375 C 174.523438 231.199219 174.851562 230.980469 175.226562 230.824219 C 175.597656 230.671875 175.984375 230.59375 176.386719 230.59375 L 198.777344 230.59375 C 199.183594 230.59375 199.570312 230.671875 199.941406 230.824219 C 200.3125 230.980469 200.644531 231.199219 200.929688 231.484375 C 201.214844 231.769531 201.433594 232.097656 201.585938 232.46875 C 201.742188 232.839844 201.816406 233.226562 201.816406 233.628906 Z M 201.816406 264.125 " fill-opacity="1" fill-rule="nonzero"/><path fill="#b4e0e9" d="M 199.71875 170.832031 C 199.71875 171.628906 199.640625 172.414062 199.484375 173.195312 C 199.332031 173.976562 199.101562 174.734375 198.796875 175.46875 C 198.492188 176.203125 198.117188 176.902344 197.675781 177.5625 C 197.230469 178.222656 196.726562 178.835938 196.164062 179.398438 C 195.601562 179.960938 194.988281 180.460938 194.324219 180.902344 C 193.664062 181.34375 192.964844 181.71875 192.226562 182.023438 C 191.492188 182.328125 190.734375 182.558594 189.949219 182.710938 C 189.167969 182.867188 188.378906 182.945312 187.582031 182.945312 C 186.785156 182.945312 185.996094 182.867188 185.214844 182.710938 C 184.433594 182.558594 183.675781 182.328125 182.9375 182.023438 C 182.203125 181.71875 181.503906 181.34375 180.839844 180.902344 C 180.179688 180.460938 179.566406 179.960938 179.003906 179.398438 C 178.4375 178.835938 177.933594 178.222656 177.492188 177.5625 C 177.050781 176.902344 176.675781 176.203125 176.371094 175.46875 C 176.066406 174.734375 175.835938 173.976562 175.679688 173.195312 C 175.523438 172.414062 175.449219 171.628906 175.449219 170.832031 C 175.449219 170.039062 175.523438 169.25 175.679688 168.46875 C 175.835938 167.691406 176.066406 166.933594 176.371094 166.199219 C 176.675781 165.460938 177.050781 164.765625 177.492188 164.105469 C 177.933594 163.441406 178.4375 162.832031 179.003906 162.269531 C 179.566406 161.707031 180.179688 161.203125 180.839844 160.761719 C 181.503906 160.320312 182.203125 159.945312 182.9375 159.640625 C 183.675781 159.339844 184.433594 159.109375 185.214844 158.953125 C 185.996094 158.796875 186.785156 158.71875 187.582031 158.71875 C 188.378906 158.71875 189.167969 158.796875 189.949219 158.953125 C 190.734375 159.109375 191.492188 159.339844 192.226562 159.640625 C 192.964844 159.945312 193.664062 160.320312 194.324219 160.761719 C 194.988281 161.203125 195.601562 161.707031 196.164062 162.269531 C 196.726562 162.832031 197.230469 163.441406 197.675781 164.105469 C 198.117188 164.765625 198.492188 165.460938 198.796875 166.199219 C 199.101562 166.933594 199.332031 167.691406 199.484375 168.46875 C 199.640625 169.25 199.71875 170.039062 199.71875 170.832031 Z M 199.71875 170.832031 " fill-opacity="1" fill-rule="nonzero"/><path fill="#b4e0e9" d="M 103.066406 207.402344 L 130.039062 207.402344 L 130.039062 235.707031 L 103.066406 235.707031 Z M 103.066406 207.402344 " fill-opacity="1" fill-rule="nonzero"/><path fill="#30100b" d="M 296.125 189.746094 L 296.125 182.429688 C 296.125 181.972656 296.078125 181.515625 295.988281 181.066406 C 295.898438 180.613281 295.765625 180.175781 295.589844 179.753906 C 295.410156 179.328125 295.195312 178.925781 294.941406 178.542969 C 294.683594 178.164062 294.394531 177.808594 294.066406 177.484375 C 293.742188 177.160156 293.386719 176.871094 293.003906 176.613281 C 292.621094 176.359375 292.21875 176.144531 291.792969 175.96875 C 291.367188 175.792969 290.929688 175.65625 290.480469 175.566406 C 290.027344 175.476562 289.570312 175.433594 289.109375 175.433594 L 234.441406 175.433594 L 234.441406 169.765625 C 235.027344 169.988281 235.628906 170.152344 236.242188 170.269531 C 236.859375 170.382812 237.480469 170.441406 238.105469 170.445312 C 238.734375 170.453125 239.355469 170.402344 239.972656 170.296875 C 240.589844 170.195312 241.191406 170.035156 241.78125 169.824219 C 242.371094 169.613281 242.9375 169.355469 243.484375 169.046875 C 244.027344 168.734375 244.539062 168.378906 245.019531 167.980469 C 245.5 167.578125 245.945312 167.140625 246.347656 166.664062 C 246.75 166.183594 247.109375 165.675781 247.421875 165.136719 C 247.738281 164.59375 248 164.03125 248.214844 163.441406 C 248.429688 162.855469 248.589844 162.253906 248.699219 161.636719 C 248.808594 161.023438 248.859375 160.402344 248.859375 159.777344 C 248.859375 159.152344 248.800781 158.53125 248.691406 157.917969 C 248.582031 157.300781 248.417969 156.703125 248.199219 156.117188 C 247.984375 155.527344 247.714844 154.964844 247.402344 154.425781 C 247.085938 153.886719 246.722656 153.378906 246.316406 152.902344 C 245.914062 152.425781 245.46875 151.988281 244.984375 151.59375 L 198.9375 113.589844 C 198.144531 112.9375 197.300781 112.359375 196.40625 111.851562 C 195.515625 111.34375 194.585938 110.914062 193.617188 110.566406 C 192.648438 110.222656 191.660156 109.960938 190.644531 109.78125 C 189.632812 109.605469 188.613281 109.519531 187.585938 109.519531 C 186.558594 109.519531 185.535156 109.605469 184.523438 109.78125 C 183.511719 109.960938 182.519531 110.222656 181.554688 110.566406 C 180.585938 110.914062 179.65625 111.34375 178.761719 111.851562 C 177.867188 112.359375 177.027344 112.9375 176.234375 113.589844 L 130.179688 151.59375 C 129.695312 151.988281 129.25 152.425781 128.84375 152.902344 C 128.4375 153.375 128.074219 153.882812 127.757812 154.421875 C 127.441406 154.960938 127.175781 155.527344 126.957031 156.113281 C 126.742188 156.699219 126.578125 157.300781 126.464844 157.914062 C 126.355469 158.527344 126.296875 159.148438 126.296875 159.773438 C 126.296875 160.398438 126.347656 161.019531 126.457031 161.636719 C 126.566406 162.25 126.726562 162.851562 126.941406 163.441406 C 127.15625 164.027344 127.421875 164.589844 127.734375 165.132812 C 128.050781 165.671875 128.410156 166.179688 128.8125 166.660156 C 129.21875 167.136719 129.660156 167.574219 130.140625 167.972656 C 130.625 168.375 131.136719 168.726562 131.683594 169.035156 C 132.226562 169.34375 132.792969 169.605469 133.382812 169.8125 C 133.972656 170.023438 134.578125 170.179688 135.195312 170.28125 C 135.8125 170.382812 136.4375 170.429688 137.0625 170.425781 C 137.6875 170.417969 138.308594 170.355469 138.925781 170.238281 C 139.539062 170.125 140.140625 169.953125 140.726562 169.734375 L 140.726562 175.433594 L 86.054688 175.433594 C 85.59375 175.433594 85.140625 175.476562 84.6875 175.566406 C 84.238281 175.65625 83.796875 175.792969 83.375 175.96875 C 82.949219 176.144531 82.542969 176.359375 82.160156 176.613281 C 81.777344 176.871094 81.425781 177.160156 81.097656 177.484375 C 80.773438 177.808594 80.484375 178.164062 80.226562 178.542969 C 79.972656 178.925781 79.753906 179.328125 79.578125 179.753906 C 79.402344 180.179688 79.269531 180.613281 79.179688 181.066406 C 79.089844 181.515625 79.042969 181.972656 79.042969 182.429688 L 79.042969 189.746094 C 79.042969 190.171875 79.082031 190.59375 79.164062 191.011719 C 79.242188 191.429688 79.355469 191.835938 79.507812 192.234375 C 79.664062 192.628906 79.851562 193.007812 80.074219 193.371094 C 80.296875 193.734375 80.550781 194.074219 80.835938 194.390625 C 81.117188 194.707031 81.429688 194.996094 81.765625 195.253906 C 82.105469 195.515625 82.464844 195.742188 82.84375 195.933594 C 83.222656 196.128906 83.613281 196.289062 84.023438 196.410156 C 84.429688 196.53125 84.847656 196.617188 85.269531 196.664062 L 85.269531 246.441406 C 84.847656 246.488281 84.429688 246.574219 84.023438 246.695312 C 83.613281 246.816406 83.222656 246.976562 82.84375 247.171875 C 82.464844 247.363281 82.105469 247.589844 81.765625 247.851562 C 81.429688 248.109375 81.117188 248.398438 80.835938 248.714844 C 80.550781 249.03125 80.296875 249.371094 80.074219 249.734375 C 79.851562 250.097656 79.664062 250.476562 79.507812 250.871094 C 79.355469 251.269531 79.242188 251.675781 79.164062 252.09375 C 79.082031 252.511719 79.042969 252.933594 79.042969 253.359375 L 79.042969 260.675781 C 79.042969 261.132812 79.089844 261.589844 79.179688 262.039062 C 79.269531 262.488281 79.402344 262.925781 79.578125 263.351562 C 79.753906 263.777344 79.972656 264.179688 80.226562 264.5625 C 80.484375 264.941406 80.773438 265.296875 81.097656 265.621094 C 81.425781 265.945312 81.777344 266.234375 82.160156 266.492188 C 82.542969 266.746094 82.949219 266.960938 83.375 267.136719 C 83.796875 267.3125 84.238281 267.445312 84.6875 267.535156 C 85.140625 267.625 85.59375 267.671875 86.054688 267.671875 L 289.109375 267.671875 C 289.570312 267.671875 290.027344 267.625 290.480469 267.535156 C 290.929688 267.445312 291.367188 267.3125 291.792969 267.136719 C 292.21875 266.960938 292.621094 266.746094 293.003906 266.492188 C 293.386719 266.234375 293.742188 265.945312 294.066406 265.621094 C 294.394531 265.296875 294.683594 264.941406 294.941406 264.5625 C 295.195312 264.179688 295.410156 263.777344 295.589844 263.351562 C 295.765625 262.925781 295.898438 262.488281 295.988281 262.039062 C 296.078125 261.589844 296.125 261.132812 296.125 260.675781 L 296.125 253.359375 C 296.121094 252.933594 296.082031 252.511719 296.003906 252.09375 C 295.925781 251.675781 295.808594 251.269531 295.65625 250.871094 C 295.503906 250.476562 295.316406 250.097656 295.09375 249.734375 C 294.871094 249.371094 294.617188 249.03125 294.332031 248.714844 C 294.046875 248.398438 293.738281 248.109375 293.398438 247.851562 C 293.0625 247.589844 292.703125 247.363281 292.324219 247.171875 C 291.945312 246.976562 291.550781 246.816406 291.144531 246.695312 C 290.734375 246.574219 290.320312 246.488281 289.898438 246.441406 L 289.898438 196.664062 C 290.320312 196.617188 290.734375 196.53125 291.144531 196.410156 C 291.550781 196.289062 291.945312 196.128906 292.324219 195.933594 C 292.703125 195.742188 293.0625 195.511719 293.398438 195.253906 C 293.738281 194.996094 294.046875 194.707031 294.332031 194.390625 C 294.617188 194.074219 294.871094 193.734375 295.09375 193.371094 C 295.316406 193.007812 295.503906 192.628906 295.65625 192.234375 C 295.808594 191.835938 295.925781 191.429688 296.003906 191.011719 C 296.082031 190.59375 296.121094 190.171875 296.125 189.746094 Z M 234.441406 246.363281 L 234.441406 196.742188 L 282.78125 196.742188 L 282.78125 246.363281 Z M 176.90625 260.570312 L 176.90625 234.144531 L 198.257812 234.144531 L 198.257812 260.570312 Z M 198.777344 227.039062 L 176.390625 227.039062 C 175.957031 227.039062 175.527344 227.082031 175.101562 227.167969 C 174.679688 227.253906 174.265625 227.378906 173.867188 227.542969 C 173.464844 227.710938 173.085938 227.910156 172.726562 228.152344 C 172.363281 228.390625 172.03125 228.664062 171.726562 228.972656 C 171.417969 229.277344 171.144531 229.609375 170.90625 229.96875 C 170.664062 230.328125 170.460938 230.707031 170.292969 231.105469 C 170.128906 231.503906 170.003906 231.917969 169.917969 232.339844 C 169.832031 232.765625 169.789062 233.191406 169.789062 233.625 L 169.789062 260.628906 L 147.84375 260.640625 L 147.84375 164.667969 L 187.582031 131.875 L 227.324219 164.667969 L 227.324219 260.601562 L 205.378906 260.613281 L 205.378906 233.625 C 205.375 233.191406 205.332031 232.765625 205.25 232.339844 C 205.164062 231.917969 205.039062 231.503906 204.871094 231.105469 C 204.707031 230.707031 204.503906 230.328125 204.261719 229.96875 C 204.019531 229.609375 203.746094 229.277344 203.441406 228.972656 C 203.136719 228.664062 202.800781 228.390625 202.441406 228.152344 C 202.082031 227.910156 201.703125 227.710938 201.300781 227.542969 C 200.902344 227.378906 200.488281 227.253906 200.0625 227.167969 C 199.640625 227.082031 199.210938 227.039062 198.777344 227.039062 Z M 140.726562 196.742188 L 140.726562 246.363281 L 92.386719 246.363281 L 92.386719 196.742188 Z M 289.007812 182.429688 L 289.109375 189.640625 L 234.441406 189.640625 L 234.441406 182.53125 Z M 136.648438 163.339844 C 136.296875 163.304688 135.960938 163.222656 135.636719 163.089844 C 135.308594 162.957031 135.011719 162.777344 134.738281 162.554688 C 134.464844 162.335938 134.230469 162.078125 134.03125 161.785156 C 133.835938 161.496094 133.6875 161.183594 133.582031 160.847656 C 133.480469 160.511719 133.425781 160.167969 133.425781 159.816406 C 133.425781 159.464844 133.472656 159.121094 133.574219 158.785156 C 133.675781 158.449219 133.824219 158.132812 134.019531 157.839844 C 134.210938 157.546875 134.445312 157.289062 134.71875 157.066406 L 180.769531 119.066406 C 181.246094 118.671875 181.75 118.324219 182.285156 118.019531 C 182.824219 117.714844 183.382812 117.457031 183.960938 117.25 C 184.542969 117.039062 185.136719 116.882812 185.746094 116.777344 C 186.355469 116.671875 186.964844 116.621094 187.582031 116.621094 C 188.199219 116.621094 188.8125 116.671875 189.421875 116.777344 C 190.027344 116.882812 190.625 117.039062 191.203125 117.25 C 191.785156 117.457031 192.34375 117.714844 192.878906 118.019531 C 193.417969 118.324219 193.921875 118.671875 194.398438 119.066406 L 240.449219 157.066406 C 240.722656 157.289062 240.953125 157.546875 241.148438 157.839844 C 241.34375 158.132812 241.492188 158.449219 241.59375 158.785156 C 241.691406 159.121094 241.742188 159.464844 241.742188 159.816406 C 241.742188 160.167969 241.6875 160.511719 241.585938 160.847656 C 241.480469 161.183594 241.332031 161.496094 241.132812 161.785156 C 240.9375 162.078125 240.703125 162.335938 240.429688 162.558594 C 240.15625 162.777344 239.859375 162.957031 239.53125 163.089844 C 239.207031 163.222656 238.867188 163.304688 238.519531 163.339844 C 237.535156 163.441406 236.667969 163.171875 235.914062 162.539062 L 189.851562 124.527344 C 189.535156 124.265625 189.179688 124.066406 188.789062 123.925781 C 188.398438 123.785156 187.996094 123.714844 187.582031 123.714844 C 187.167969 123.714844 186.765625 123.785156 186.378906 123.925781 C 185.988281 124.066406 185.632812 124.265625 185.3125 124.527344 L 139.253906 162.539062 C 138.5 163.175781 137.628906 163.441406 136.648438 163.339844 Z M 140.726562 182.535156 L 140.726562 189.644531 L 86.160156 189.746094 L 86.054688 182.535156 Z M 86.054688 253.464844 L 140.726562 253.464844 L 140.726562 260.644531 L 86.160156 260.675781 Z M 234.441406 260.597656 L 234.441406 253.460938 L 289.007812 253.359375 L 289.109375 260.570312 Z M 272.101562 203.847656 L 245.128906 203.847656 C 244.65625 203.847656 244.203125 203.9375 243.765625 204.117188 C 243.328125 204.296875 242.945312 204.554688 242.609375 204.886719 C 242.277344 205.21875 242.019531 205.605469 241.839844 206.039062 C 241.660156 206.472656 241.570312 206.925781 241.570312 207.398438 L 241.570312 235.707031 C 241.570312 236.175781 241.660156 236.628906 241.839844 237.066406 C 242.019531 237.5 242.277344 237.886719 242.609375 238.21875 C 242.945312 238.550781 243.328125 238.808594 243.765625 238.988281 C 244.203125 239.167969 244.65625 239.257812 245.128906 239.257812 L 272.101562 239.257812 C 272.574219 239.257812 273.027344 239.167969 273.464844 238.988281 C 273.902344 238.808594 274.285156 238.550781 274.621094 238.21875 C 274.953125 237.886719 275.210938 237.5 275.390625 237.066406 C 275.570312 236.628906 275.660156 236.175781 275.660156 235.707031 L 275.660156 207.398438 C 275.660156 206.925781 275.570312 206.472656 275.390625 206.039062 C 275.210938 205.605469 274.953125 205.21875 274.621094 204.886719 C 274.285156 204.554688 273.902344 204.296875 273.464844 204.117188 C 273.027344 203.9375 272.574219 203.847656 272.101562 203.847656 Z M 268.542969 210.949219 L 268.542969 218 L 248.6875 218 L 248.6875 210.949219 Z M 248.6875 232.15625 L 248.6875 225.101562 L 268.542969 225.101562 L 268.542969 232.15625 Z M 187.582031 155.167969 C 186.554688 155.167969 185.53125 155.265625 184.523438 155.46875 C 183.511719 155.667969 182.53125 155.964844 181.578125 156.359375 C 180.625 156.753906 179.722656 157.234375 178.867188 157.808594 C 178.007812 158.378906 177.214844 159.027344 176.488281 159.753906 C 175.757812 160.480469 175.109375 161.273438 174.535156 162.128906 C 173.964844 162.984375 173.480469 163.886719 173.085938 164.835938 C 172.691406 165.785156 172.394531 166.765625 172.195312 167.773438 C 171.992188 168.78125 171.890625 169.800781 171.890625 170.828125 C 171.890625 171.859375 171.992188 172.875 172.195312 173.886719 C 172.394531 174.894531 172.691406 175.871094 173.085938 176.824219 C 173.480469 177.773438 173.964844 178.675781 174.539062 179.53125 C 175.109375 180.386719 175.761719 181.175781 176.488281 181.902344 C 177.21875 182.628906 178.011719 183.28125 178.867188 183.851562 C 179.722656 184.421875 180.628906 184.90625 181.582031 185.296875 C 182.53125 185.691406 183.515625 185.988281 184.523438 186.191406 C 185.535156 186.390625 186.554688 186.492188 187.585938 186.492188 C 188.617188 186.492188 189.636719 186.390625 190.648438 186.1875 C 191.65625 185.988281 192.640625 185.691406 193.589844 185.296875 C 194.542969 184.90625 195.445312 184.421875 196.304688 183.851562 C 197.160156 183.277344 197.953125 182.628906 198.683594 181.902344 C 199.410156 181.175781 200.0625 180.382812 200.632812 179.53125 C 201.207031 178.675781 201.6875 177.773438 202.082031 176.820312 C 202.476562 175.871094 202.777344 174.890625 202.976562 173.882812 C 203.175781 172.875 203.277344 171.855469 203.277344 170.828125 C 203.277344 169.800781 203.175781 168.78125 202.972656 167.773438 C 202.769531 166.765625 202.472656 165.785156 202.078125 164.835938 C 201.683594 163.886719 201.199219 162.984375 200.628906 162.128906 C 200.054688 161.277344 199.402344 160.484375 198.675781 159.757812 C 197.945312 159.03125 197.15625 158.382812 196.296875 157.8125 C 195.441406 157.238281 194.539062 156.757812 193.585938 156.363281 C 192.636719 155.96875 191.652344 155.671875 190.644531 155.46875 C 189.632812 155.269531 188.613281 155.167969 187.582031 155.167969 Z M 187.582031 179.386719 C 187.019531 179.386719 186.460938 179.332031 185.910156 179.222656 C 185.359375 179.113281 184.820312 178.949219 184.300781 178.734375 C 183.78125 178.519531 183.289062 178.257812 182.820312 177.945312 C 182.351562 177.632812 181.917969 177.277344 181.519531 176.878906 C 181.121094 176.480469 180.765625 176.050781 180.453125 175.582031 C 180.140625 175.113281 179.878906 174.621094 179.660156 174.101562 C 179.445312 173.582031 179.285156 173.046875 179.175781 172.496094 C 179.0625 171.945312 179.007812 171.390625 179.007812 170.828125 C 179.007812 170.265625 179.0625 169.707031 179.175781 169.15625 C 179.285156 168.605469 179.445312 168.070312 179.664062 167.550781 C 179.878906 167.03125 180.140625 166.539062 180.457031 166.074219 C 180.769531 165.605469 181.125 165.171875 181.523438 164.777344 C 181.917969 164.378906 182.351562 164.023438 182.820312 163.710938 C 183.289062 163.398438 183.785156 163.136719 184.304688 162.921875 C 184.824219 162.707031 185.359375 162.542969 185.914062 162.433594 C 186.464844 162.324219 187.023438 162.269531 187.585938 162.269531 C 188.148438 162.269531 188.707031 162.324219 189.257812 162.433594 C 189.8125 162.542969 190.347656 162.707031 190.867188 162.921875 C 191.386719 163.136719 191.882812 163.398438 192.347656 163.710938 C 192.816406 164.023438 193.25 164.378906 193.648438 164.777344 C 194.046875 165.171875 194.402344 165.605469 194.714844 166.074219 C 195.027344 166.539062 195.292969 167.035156 195.507812 167.554688 C 195.722656 168.070312 195.886719 168.605469 195.996094 169.160156 C 196.105469 169.710938 196.160156 170.265625 196.160156 170.828125 C 196.160156 171.390625 196.105469 171.945312 195.992188 172.496094 C 195.882812 173.046875 195.71875 173.582031 195.503906 174.101562 C 195.289062 174.621094 195.023438 175.113281 194.710938 175.582031 C 194.398438 176.046875 194.042969 176.480469 193.644531 176.878906 C 193.246094 177.273438 192.8125 177.628906 192.347656 177.941406 C 191.878906 178.253906 191.382812 178.519531 190.863281 178.734375 C 190.34375 178.949219 189.808594 179.109375 189.257812 179.222656 C 188.703125 179.332031 188.144531 179.386719 187.582031 179.386719 Z M 209.191406 199.660156 C 209.191406 199.484375 209.226562 199.316406 209.292969 199.152344 C 209.363281 198.988281 209.457031 198.84375 209.582031 198.71875 C 209.710938 198.59375 209.851562 198.5 210.015625 198.429688 C 210.179688 198.363281 210.351562 198.332031 210.527344 198.328125 L 217.644531 198.328125 C 217.820312 198.332031 217.992188 198.363281 218.15625 198.433594 C 218.316406 198.5 218.460938 198.597656 218.585938 198.722656 C 218.710938 198.847656 218.808594 198.988281 218.875 199.152344 C 218.941406 199.316406 218.976562 199.484375 218.976562 199.660156 C 218.976562 199.839844 218.941406 200.007812 218.875 200.171875 C 218.808594 200.332031 218.710938 200.476562 218.585938 200.601562 C 218.460938 200.726562 218.316406 200.824219 218.15625 200.890625 C 217.992188 200.960938 217.820312 200.992188 217.644531 200.992188 L 210.527344 200.992188 C 210.351562 200.992188 210.179688 200.960938 210.015625 200.890625 C 209.851562 200.824219 209.710938 200.730469 209.582031 200.605469 C 209.457031 200.480469 209.363281 200.335938 209.292969 200.171875 C 209.226562 200.007812 209.191406 199.839844 209.191406 199.660156 Z M 165.597656 199.660156 C 165.597656 199.839844 165.566406 200.007812 165.496094 200.171875 C 165.429688 200.335938 165.332031 200.480469 165.207031 200.605469 C 165.082031 200.730469 164.9375 200.824219 164.773438 200.890625 C 164.609375 200.960938 164.441406 200.992188 164.265625 200.992188 L 157.148438 200.992188 C 156.96875 200.996094 156.796875 200.960938 156.636719 200.894531 C 156.472656 200.824219 156.324219 200.730469 156.199219 200.605469 C 156.074219 200.480469 155.976562 200.335938 155.910156 200.171875 C 155.84375 200.007812 155.808594 199.839844 155.808594 199.660156 C 155.808594 199.484375 155.84375 199.316406 155.910156 199.152344 C 155.976562 198.988281 156.074219 198.84375 156.199219 198.71875 C 156.324219 198.59375 156.472656 198.496094 156.636719 198.429688 C 156.796875 198.363281 156.96875 198.328125 157.148438 198.328125 L 164.265625 198.328125 C 164.441406 198.332031 164.609375 198.363281 164.773438 198.429688 C 164.9375 198.5 165.082031 198.59375 165.207031 198.71875 C 165.332031 198.84375 165.429688 198.988281 165.496094 199.152344 C 165.566406 199.316406 165.597656 199.484375 165.597656 199.660156 Z M 183.390625 199.660156 C 183.390625 199.839844 183.359375 200.007812 183.289062 200.171875 C 183.222656 200.335938 183.125 200.480469 183 200.605469 C 182.875 200.730469 182.730469 200.824219 182.570312 200.890625 C 182.40625 200.960938 182.234375 200.992188 182.058594 200.992188 L 174.941406 200.992188 C 174.761719 200.992188 174.59375 200.960938 174.429688 200.890625 C 174.269531 200.824219 174.125 200.726562 174 200.601562 C 173.875 200.476562 173.777344 200.332031 173.710938 200.171875 C 173.644531 200.007812 173.609375 199.839844 173.609375 199.660156 C 173.609375 199.484375 173.644531 199.316406 173.710938 199.152344 C 173.777344 198.988281 173.875 198.847656 174 198.722656 C 174.125 198.597656 174.269531 198.5 174.429688 198.433594 C 174.59375 198.363281 174.761719 198.332031 174.941406 198.328125 L 182.058594 198.328125 C 182.234375 198.332031 182.40625 198.363281 182.570312 198.429688 C 182.730469 198.5 182.875 198.59375 183 198.71875 C 183.125 198.84375 183.222656 198.988281 183.289062 199.152344 C 183.359375 199.316406 183.390625 199.484375 183.390625 199.660156 Z M 201.1875 199.660156 C 201.1875 199.839844 201.152344 200.007812 201.085938 200.171875 C 201.015625 200.335938 200.921875 200.480469 200.796875 200.605469 C 200.667969 200.730469 200.527344 200.824219 200.363281 200.890625 C 200.199219 200.960938 200.027344 200.992188 199.851562 200.992188 L 192.734375 200.992188 C 192.554688 200.996094 192.386719 200.960938 192.222656 200.894531 C 192.058594 200.824219 191.914062 200.730469 191.789062 200.605469 C 191.664062 200.480469 191.566406 200.335938 191.496094 200.171875 C 191.429688 200.007812 191.394531 199.839844 191.394531 199.660156 C 191.394531 199.484375 191.429688 199.316406 191.496094 199.152344 C 191.566406 198.988281 191.664062 198.84375 191.789062 198.71875 C 191.914062 198.59375 192.058594 198.496094 192.222656 198.429688 C 192.386719 198.363281 192.554688 198.328125 192.734375 198.328125 L 199.851562 198.328125 C 200.027344 198.332031 200.199219 198.363281 200.363281 198.429688 C 200.523438 198.5 200.667969 198.59375 200.792969 198.71875 C 200.921875 198.84375 201.015625 198.988281 201.085938 199.152344 C 201.152344 199.316406 201.1875 199.484375 201.1875 199.660156 Z M 103.0625 239.257812 L 130.039062 239.257812 C 130.511719 239.257812 130.964844 239.167969 131.402344 238.988281 C 131.835938 238.808594 132.222656 238.550781 132.554688 238.21875 C 132.890625 237.886719 133.148438 237.5 133.328125 237.066406 C 133.507812 236.628906 133.597656 236.175781 133.597656 235.707031 L 133.597656 207.398438 C 133.597656 206.925781 133.507812 206.472656 133.328125 206.039062 C 133.148438 205.605469 132.890625 205.21875 132.554688 204.886719 C 132.222656 204.554688 131.835938 204.296875 131.402344 204.117188 C 130.964844 203.9375 130.511719 203.847656 130.039062 203.847656 L 103.0625 203.847656 C 102.59375 203.847656 102.136719 203.9375 101.703125 204.117188 C 101.265625 204.296875 100.878906 204.554688 100.546875 204.886719 C 100.214844 205.21875 99.957031 205.605469 99.777344 206.039062 C 99.59375 206.472656 99.503906 206.925781 99.503906 207.398438 L 99.503906 235.707031 C 99.503906 236.175781 99.59375 236.628906 99.777344 237.066406 C 99.957031 237.5 100.214844 237.886719 100.546875 238.21875 C 100.882812 238.550781 101.265625 238.808594 101.703125 238.988281 C 102.136719 239.167969 102.59375 239.257812 103.0625 239.257812 Z M 106.621094 232.15625 L 106.621094 225.101562 L 126.480469 225.101562 L 126.480469 232.15625 Z M 126.480469 210.949219 L 126.480469 218 L 106.621094 218 L 106.621094 210.949219 Z M 126.480469 210.949219 " fill-opacity="1" fill-rule="nonzero"/></svg>