<svg xmlns="http://www.w3.org/2000/svg" xmlns:xlink="http://www.w3.org/1999/xlink" width="682" zoomAndPan="magnify" viewBox="0 0 511.5 850.499973" height="1134" preserveAspectRatio="xMidYMid meet" version="1.0"><defs><clipPath id="fbe9f3a63b"><path d="M 193 365 L 387 365 L 387 662 L 193 662 Z M 193 365 " clip-rule="nonzero"/></clipPath><clipPath id="945be66fd3"><path d="M 377.707031 661.433594 L 193.074219 395.507812 L 236.453125 365.386719 L 421.089844 631.3125 Z M 377.707031 661.433594 " clip-rule="nonzero"/></clipPath><clipPath id="b82bbe33c2"><path d="M 375.78125 798.152344 L -7.964844 245.453125 L 100.769531 169.957031 L 484.515625 722.652344 Z M 375.78125 798.152344 " clip-rule="nonzero"/></clipPath><clipPath id="6908932a4b"><path d="M 375.996094 798 L -7.921875 245.058594 L 100.433594 169.824219 L 484.351562 722.769531 Z M 375.996094 798 " clip-rule="nonzero"/></clipPath><clipPath id="2e42c39bfc"><path d="M 375.996094 798 L -7.921875 245.058594 L 100.136719 170.03125 L 484.054688 722.976562 Z M 375.996094 798 " clip-rule="nonzero"/></clipPath><clipPath id="019372c284"><path d="M 125 186 L 390 186 L 390 576 L 125 576 Z M 125 186 " clip-rule="nonzero"/></clipPath><clipPath id="8c1feaf7e4"><path d="M 138.367188 186.71875 L 389.097656 534.425781 L 332.351562 575.347656 L 81.621094 227.636719 Z M 138.367188 186.71875 " clip-rule="nonzero"/></clipPath><clipPath id="25e269e96a"><path d="M 137.691406 5.542969 L 659.210938 728.773438 L 517.34375 831.070312 L -4.171875 107.839844 Z M 137.691406 5.542969 " clip-rule="nonzero"/></clipPath><clipPath id="de1a24c6bd"><path d="M 137.402344 5.75 L 659.117188 729.25 L 517.339844 831.484375 L -4.375 107.984375 Z M 137.402344 5.75 " clip-rule="nonzero"/></clipPath><clipPath id="10ddfd640e"><path d="M 137.402344 5.75 L 659.117188 729.25 L 517.726562 831.207031 L -3.984375 107.703125 Z M 137.402344 5.75 " clip-rule="nonzero"/></clipPath><clipPath id="ddffac4062"><path d="M 108 4 L 378 4 L 378 835 L 108 835 Z M 108 4 " clip-rule="nonzero"/></clipPath><clipPath id="788f538da3"><path d="M 151.28125 4.148438 L 502.238281 771.328125 L 351.921875 840.089844 L 0.964844 72.914062 Z M 151.28125 4.148438 " clip-rule="nonzero"/></clipPath><clipPath id="0eba349f14"><path d="M 151.28125 4.148438 L 502.238281 771.328125 L 351.921875 840.089844 L 0.964844 72.914062 Z M 151.28125 4.148438 " clip-rule="nonzero"/></clipPath><clipPath id="d4b1f603d5"><path d="M 150.976562 4.289062 L 501.851562 771.28125 L 351.550781 840.039062 L 0.679688 73.046875 Z M 150.976562 4.289062 " clip-rule="nonzero"/></clipPath><clipPath id="b2268d1294"><path d="M 150.976562 4.289062 L 501.851562 771.28125 L 351.960938 839.847656 L 1.089844 72.859375 Z M 150.976562 4.289062 " clip-rule="nonzero"/></clipPath><clipPath id="84f1327d36"><path d="M 132 6 L 403 6 L 403 847 L 132 847 Z M 132 6 " clip-rule="nonzero"/></clipPath><clipPath id="e3aafe1320"><path d="M 159.46875 1.367188 L 510.328125 777.632812 L 357.824219 846.558594 L 6.96875 70.292969 Z M 159.46875 1.367188 " clip-rule="nonzero"/></clipPath><clipPath id="7bf94582c3"><path d="M 358.023438 846.632812 L 7.164062 70.371094 L 159.667969 1.441406 L 510.523438 777.707031 Z M 358.023438 846.632812 " clip-rule="nonzero"/></clipPath><clipPath id="13aac7c181"><path d="M 358.328125 846.496094 L 7.410156 70.09375 L 159.554688 1.328125 L 510.472656 777.730469 Z M 358.328125 846.496094 " clip-rule="nonzero"/></clipPath><clipPath id="7116d2e00a"><path d="M 358.328125 846.496094 L 7.410156 70.09375 L 159.136719 1.515625 L 510.054688 777.917969 Z M 358.328125 846.496094 " clip-rule="nonzero"/></clipPath></defs><g clip-path="url(#fbe9f3a63b)"><g clip-path="url(#945be66fd3)"><g clip-path="url(#b82bbe33c2)"><g clip-path="url(#6908932a4b)"><g clip-path="url(#2e42c39bfc)"><path fill="#00244e" d="M 211.953125 440.128906 C 346.582031 538.71875 388.457031 709.613281 375.992188 798.003906 C 375.992188 798.003906 410.453125 673.734375 355.085938 546.101562 C 287.992188 391.449219 101.238281 374.933594 91.992188 175.6875 C 97.027344 228.511719 72.582031 338.074219 211.953125 440.128906 " fill-opacity="1" fill-rule="nonzero"/></g></g></g></g></g><g clip-path="url(#019372c284)"><g clip-path="url(#8c1feaf7e4)"><g clip-path="url(#25e269e96a)"><g clip-path="url(#de1a24c6bd)"><g clip-path="url(#10ddfd640e)"><path fill="#00244e" d="M 363.199219 476.003906 C 182.503906 348.570312 122.984375 123.144531 137.40625 5.746094 C 137.40625 5.746094 94.691406 171.199219 171.0625 338.988281 C 263.605469 542.296875 511.425781 559.765625 528.382812 823.519531 C 520.460938 753.65625 550.261719 607.921875 363.199219 476.003906 " fill-opacity="1" fill-rule="nonzero"/></g></g></g></g></g><g clip-path="url(#ddffac4062)"><g clip-path="url(#788f538da3)"><g clip-path="url(#0eba349f14)"><g clip-path="url(#d4b1f603d5)"><g clip-path="url(#b2268d1294)"><path fill="#f8b714" d="M 273.941406 481.976562 C 129.773438 330.554688 116.019531 110.523438 150.980469 4.289062 C 150.980469 4.289062 80.9375 149.894531 120.925781 319.566406 C 169.378906 525.15625 396.027344 586.921875 363.257812 834.679688 C 368.757812 768.421875 423.191406 638.730469 273.941406 481.976562 " fill-opacity="1" fill-rule="nonzero"/></g></g></g></g></g><g clip-path="url(#84f1327d36)"><g clip-path="url(#e3aafe1320)"><g clip-path="url(#7bf94582c3)"><g clip-path="url(#13aac7c181)"><g clip-path="url(#7116d2e00a)"><path fill="#1e98e1" d="M 236.308594 363.386719 C 381.246094 517.007812 394.128906 739.339844 358.328125 846.496094 C 358.328125 846.496094 429.75 699.730469 390.132812 528.148438 C 342.132812 320.25 113.464844 256.8125 147.703125 6.683594 C 141.84375 73.59375 86.261719 204.355469 236.308594 363.386719 " fill-opacity="1" fill-rule="nonzero"/></g></g></g></g></g></svg>