<svg xmlns="http://www.w3.org/2000/svg" xmlns:xlink="http://www.w3.org/1999/xlink" width="500" zoomAndPan="magnify" viewBox="0 0 375 374.999991" height="500" preserveAspectRatio="xMidYMid meet" version="1.0"><defs><clipPath id="6b3c714d96"><path d="M 48.371094 83 L 326.621094 83 L 326.621094 292.226562 L 48.371094 292.226562 Z M 48.371094 83 " clip-rule="nonzero"/></clipPath></defs><g clip-path="url(#6b3c714d96)"><path fill="#1f8ceb" d="M 223.117188 153.542969 C 219.78125 150.039062 216.011719 147.082031 211.816406 144.675781 C 210.957031 144.1875 210.082031 143.730469 209.195312 143.296875 C 208.308594 142.859375 207.40625 142.453125 206.496094 142.074219 C 205.582031 141.695312 204.660156 141.34375 203.726562 141.019531 C 202.796875 140.691406 201.851562 140.398438 200.902344 140.128906 C 199.953125 139.863281 198.992188 139.621094 198.027344 139.414062 C 197.0625 139.203125 196.09375 139.023438 195.117188 138.871094 C 194.140625 138.71875 193.160156 138.597656 192.175781 138.503906 C 191.191406 138.410156 190.207031 138.347656 189.222656 138.3125 C 188.234375 138.28125 187.246094 138.277344 186.257812 138.300781 C 185.269531 138.328125 184.285156 138.382812 183.300781 138.46875 C 182.316406 138.554688 181.335938 138.667969 180.359375 138.8125 C 179.382812 138.957031 178.410156 139.128906 177.441406 139.332031 C 176.476562 139.535156 175.515625 139.765625 174.5625 140.027344 C 173.609375 140.289062 172.667969 140.574219 171.730469 140.894531 C 170.796875 141.210938 169.871094 141.554688 168.953125 141.929688 C 168.039062 142.300781 167.136719 142.699219 166.246094 143.128906 C 165.355469 143.554688 164.476562 144.007812 163.613281 144.488281 C 162.75 144.96875 161.902344 145.472656 161.070312 146.003906 C 160.234375 146.535156 159.417969 147.089844 158.617188 147.671875 C 157.820312 148.25 157.035156 148.855469 156.273438 149.480469 C 155.507812 150.109375 154.765625 150.757812 154.039062 151.429688 C 153.316406 152.101562 152.613281 152.792969 151.929688 153.507812 C 151.246094 154.222656 150.582031 154.957031 149.945312 155.710938 C 149.304688 156.464844 148.691406 157.238281 148.097656 158.027344 C 147.503906 158.820312 146.9375 159.625 146.390625 160.453125 C 145.847656 161.277344 145.328125 162.117188 144.835938 162.972656 C 144.339844 163.832031 143.871094 164.699219 143.429688 165.585938 C 142.988281 166.46875 142.574219 167.367188 142.1875 168.277344 C 141.800781 169.1875 141.441406 170.105469 141.105469 171.039062 C 140.773438 171.96875 140.46875 172.910156 140.195312 173.859375 C 139.917969 174.808594 139.671875 175.765625 139.453125 176.730469 C 139.234375 177.691406 139.042969 178.664062 138.882812 179.636719 L 172.894531 179.636719 L 110.648438 264.28125 L 104.238281 255.566406 L 80.957031 223.957031 L 57.707031 192.34375 L 48.371094 179.636719 L 83.320312 179.636719 C 85.25 153.925781 96.472656 130.8125 113.625 113.644531 C 116.039062 111.222656 118.570312 108.921875 121.214844 106.75 C 123.859375 104.574219 126.601562 102.535156 129.445312 100.632812 C 132.289062 98.726562 135.222656 96.96875 138.238281 95.355469 C 141.257812 93.738281 144.347656 92.277344 147.507812 90.96875 C 150.671875 89.660156 153.886719 88.507812 157.164062 87.515625 C 160.4375 86.523438 163.753906 85.695312 167.109375 85.03125 C 170.46875 84.367188 173.847656 83.867188 177.253906 83.535156 C 180.660156 83.207031 184.074219 83.042969 187.496094 83.046875 L 187.496094 98.972656 C 186.046875 98.972656 184.597656 99.007812 183.148438 99.078125 C 181.703125 99.148438 180.257812 99.257812 178.816406 99.398438 C 177.371094 99.542969 175.933594 99.71875 174.5 99.933594 C 173.066406 100.144531 171.640625 100.390625 170.21875 100.675781 C 168.796875 100.957031 167.382812 101.277344 165.976562 101.628906 C 164.574219 101.980469 163.175781 102.367188 161.789062 102.789062 C 160.402344 103.210938 159.027344 103.664062 157.664062 104.152344 C 156.296875 104.640625 154.945312 105.164062 153.609375 105.71875 C 152.269531 106.273438 150.945312 106.863281 149.632812 107.484375 C 148.324219 108.101562 147.03125 108.753906 145.753906 109.4375 C 144.472656 110.121094 143.214844 110.835938 141.96875 111.582031 C 140.726562 112.328125 139.503906 113.105469 138.296875 113.910156 C 137.09375 114.714844 135.910156 115.550781 134.746094 116.414062 C 133.582031 117.28125 132.4375 118.171875 131.320312 119.09375 C 130.199219 120.011719 129.101562 120.960938 128.027344 121.933594 C 126.953125 122.910156 125.90625 123.910156 124.878906 124.933594 C 123.855469 125.960938 122.855469 127.011719 121.882812 128.085938 C 120.910156 129.160156 119.964844 130.257812 119.042969 131.378906 C 118.125 132.5 117.234375 133.644531 116.371094 134.808594 C 115.507812 135.976562 114.671875 137.160156 113.867188 138.367188 C 113.0625 139.574219 112.285156 140.796875 111.542969 142.042969 C 110.796875 143.285156 110.082031 144.546875 109.398438 145.828125 C 108.714844 147.105469 108.066406 148.402344 107.445312 149.714844 C 106.824219 151.023438 106.238281 152.351562 105.683594 153.691406 C 105.128906 155.03125 104.609375 156.382812 104.121094 157.75 C 103.632812 159.117188 103.175781 160.492188 102.757812 161.882812 C 102.335938 163.269531 101.949219 164.667969 101.597656 166.074219 C 101.246094 167.480469 100.929688 168.898438 100.644531 170.320312 C 100.363281 171.742188 100.113281 173.171875 99.902344 174.605469 C 99.691406 176.042969 99.511719 177.480469 99.371094 178.925781 C 99.226562 180.367188 99.121094 181.8125 99.050781 183.261719 C 98.980469 184.710938 98.945312 186.160156 98.945312 187.613281 L 98.945312 195.5625 L 79.863281 195.5625 L 93.757812 214.480469 L 110.640625 237.425781 L 127.5 214.480469 L 141.429688 195.5625 L 122.324219 195.5625 L 122.324219 187.613281 C 122.324219 186.023438 122.378906 184.4375 122.496094 182.855469 C 122.609375 181.269531 122.785156 179.691406 123.015625 178.121094 C 123.246094 176.550781 123.53125 174.988281 123.878906 173.4375 C 124.222656 171.886719 124.621094 170.351562 125.078125 168.828125 C 125.535156 167.308594 126.046875 165.804688 126.613281 164.324219 C 127.179688 162.839844 127.800781 161.378906 128.472656 159.9375 C 129.144531 158.5 129.871094 157.089844 130.644531 155.703125 C 131.421875 154.316406 132.246094 152.960938 133.121094 151.636719 C 133.996094 150.3125 134.917969 149.019531 135.886719 147.761719 C 136.855469 146.503906 137.871094 145.285156 138.929688 144.101562 C 139.988281 142.917969 141.085938 141.773438 142.230469 140.671875 C 143.371094 139.570312 144.550781 138.507812 145.769531 137.492188 C 146.988281 136.476562 148.242188 135.503906 149.535156 134.578125 C 150.824219 133.652344 152.144531 132.777344 153.5 131.949219 C 154.851562 131.121094 156.234375 130.34375 157.644531 129.617188 C 159.058594 128.890625 160.492188 128.214844 161.953125 127.589844 C 163.414062 126.96875 164.894531 126.402344 166.394531 125.886719 C 167.894531 125.375 169.414062 124.914062 170.949219 124.511719 C 172.484375 124.109375 174.03125 123.761719 175.589844 123.472656 C 177.152344 123.183594 178.71875 122.949219 180.296875 122.777344 C 181.875 122.601562 183.457031 122.484375 185.039062 122.425781 C 186.625 122.363281 188.210938 122.363281 189.796875 122.417969 C 191.382812 122.476562 192.964844 122.589844 194.542969 122.761719 C 196.121094 122.933594 197.6875 123.164062 199.25 123.453125 C 200.8125 123.738281 202.359375 124.082031 203.894531 124.480469 C 205.429688 124.882812 206.949219 125.339844 208.449219 125.847656 C 209.953125 126.359375 211.433594 126.925781 212.894531 127.546875 C 214.355469 128.164062 215.792969 128.835938 217.207031 129.5625 C 218.617188 130.289062 220 131.0625 221.355469 131.886719 C 222.710938 132.714844 224.035156 133.589844 225.328125 134.511719 C 226.617188 135.433594 227.875 136.402344 229.097656 137.417969 C 230.316406 138.433594 231.5 139.488281 232.644531 140.589844 Z M 151.851562 221.65625 C 153.425781 223.304688 155.105469 224.835938 156.890625 226.253906 C 158.679688 227.667969 160.554688 228.957031 162.519531 230.109375 C 164.484375 231.265625 166.519531 232.28125 168.625 233.152344 C 170.730469 234.027344 172.886719 234.75 175.09375 235.320312 C 177.296875 235.894531 179.535156 236.3125 181.796875 236.578125 C 184.0625 236.839844 186.332031 236.945312 188.609375 236.890625 C 190.886719 236.839844 193.152344 236.628906 195.402344 236.261719 C 197.652344 235.898438 199.863281 235.375 202.042969 234.703125 C 204.21875 234.027344 206.339844 233.207031 208.402344 232.238281 C 210.464844 231.269531 212.453125 230.164062 214.363281 228.917969 C 216.273438 227.671875 218.085938 226.300781 219.804688 224.804688 C 221.527344 223.308594 223.136719 221.699219 224.632812 219.980469 C 226.128906 218.261719 227.5 216.445312 228.746094 214.535156 C 229.992188 212.625 231.097656 210.636719 232.070312 208.574219 C 233.039062 206.507812 233.863281 204.386719 234.539062 202.207031 C 235.214844 200.03125 235.734375 197.816406 236.105469 195.5625 L 202.097656 195.5625 C 220.699219 170.257812 239.320312 144.945312 257.957031 119.628906 L 264.347656 110.929688 L 270.757812 119.628906 L 294.035156 151.265625 L 317.28125 182.867188 L 326.621094 195.570312 L 291.667969 195.570312 C 289.738281 221.289062 278.515625 244.394531 261.367188 261.566406 C 242.46875 280.480469 216.351562 292.195312 187.496094 292.195312 L 187.496094 276.253906 C 211.949219 276.253906 234.089844 266.3125 250.109375 250.269531 C 252.164062 248.222656 254.109375 246.074219 255.953125 243.832031 C 257.792969 241.589844 259.519531 239.261719 261.132812 236.851562 C 262.746094 234.4375 264.238281 231.953125 265.605469 229.394531 C 266.972656 226.832031 268.210938 224.214844 269.320312 221.53125 C 270.429688 218.851562 271.40625 216.121094 272.25 213.34375 C 273.089844 210.5625 273.792969 207.75 274.355469 204.90625 C 274.921875 202.058594 275.34375 199.1875 275.625 196.300781 C 275.910156 193.410156 276.046875 190.515625 276.046875 187.613281 L 276.046875 179.636719 L 295.15625 179.636719 L 281.234375 160.722656 L 264.347656 137.804688 L 247.492188 160.722656 L 233.5625 179.636719 L 252.667969 179.636719 L 252.667969 187.613281 C 252.667969 189.199219 252.609375 190.789062 252.496094 192.371094 C 252.378906 193.957031 252.207031 195.535156 251.976562 197.105469 C 251.746094 198.675781 251.457031 200.238281 251.113281 201.789062 C 250.769531 203.339844 250.371094 204.875 249.914062 206.398438 C 249.457031 207.917969 248.945312 209.421875 248.378906 210.90625 C 247.8125 212.390625 247.191406 213.851562 246.519531 215.289062 C 245.847656 216.726562 245.121094 218.140625 244.347656 219.523438 C 243.570312 220.910156 242.746094 222.265625 241.871094 223.589844 C 240.996094 224.917969 240.074219 226.207031 239.105469 227.464844 C 238.132812 228.722656 237.121094 229.945312 236.0625 231.128906 C 235.003906 232.3125 233.902344 233.453125 232.761719 234.558594 C 231.621094 235.660156 230.4375 236.722656 229.21875 237.738281 C 228 238.753906 226.746094 239.726562 225.457031 240.648438 C 224.164062 241.574219 222.84375 242.453125 221.488281 243.28125 C 220.136719 244.109375 218.753906 244.886719 217.339844 245.613281 C 215.929688 246.339844 214.496094 247.015625 213.035156 247.636719 C 211.574219 248.257812 210.09375 248.828125 208.59375 249.339844 C 207.089844 249.855469 205.574219 250.3125 204.039062 250.714844 C 202.503906 251.117188 200.953125 251.464844 199.394531 251.753906 C 197.832031 252.042969 196.265625 252.273438 194.6875 252.449219 C 193.109375 252.621094 191.527344 252.738281 189.941406 252.796875 C 188.355469 252.859375 186.769531 252.859375 185.1875 252.800781 C 183.601562 252.746094 182.019531 252.628906 180.441406 252.457031 C 178.863281 252.285156 177.292969 252.054688 175.734375 251.765625 C 174.171875 251.476562 172.625 251.132812 171.089844 250.734375 C 169.554688 250.332031 168.035156 249.875 166.53125 249.363281 C 165.03125 248.851562 163.546875 248.285156 162.085938 247.664062 C 160.625 247.042969 159.191406 246.371094 157.777344 245.644531 C 156.367188 244.921875 154.984375 244.144531 153.628906 243.316406 C 152.273438 242.492188 150.949219 241.617188 149.660156 240.691406 C 148.367188 239.769531 147.113281 238.800781 145.890625 237.785156 C 144.671875 236.769531 143.488281 235.710938 142.347656 234.609375 Z M 151.851562 221.65625 " fill-opacity="1" fill-rule="evenodd"/></g></svg>